# xmcd CD database file
#
# Track frame offsets:
#	150
#	11295
#	30035
#	43261
#	55208
#	78256
#	88589
#	102528
#	109818
#
# Disc length: 2008 seconds
#
# Revision: 0
# Processed by: cddbd v1.5.2PL0 Copyright (c) Steve Scherf et al.
# Submitted via: CDex 1.70beta3
#
DISCID=6107d609
DTITLE=Jon Appleton - Appleton Syntonic Menagerie
DYEAR=1969
DGENRE=Jazz
TTITLE0=Chef d'Oeuvre
TTITLE1=Nyckelharpan
TTITLE2=Infantasy
TTITLE3=Georganna's Fancy
TTITLE4=The Visitation
TTITLE5=Newark Airport Rock
TTITLE6=Spuyten Duyvil
TTITLE7=Second Scene Unobserve
TTITLE8=Times Square Times Ten
EXTD=YEAR: 1969
EXTT0=
EXTT1=
EXTT2=
EXTT3=
EXTT4=
EXTT5=
EXTT6=
EXTT7=
EXTT8=
PLAYORDER=
